<?xml version="1.0" encoding="utf-8"?>

<!-- Uploaded to: SVG Repo, www.svgrepo.com, Generator: SVG Repo Mixer Tools -->
<svg fill="#000000" height="800px" width="800px" version="1.1" id="Icons" xmlns="http://www.w3.org/2000/svg" xmlns:xlink="http://www.w3.org/1999/xlink" 
	 viewBox="0 0 32 32" xml:space="preserve">
<g>
	<path d="M23,9c-2.8,0-5,2.2-5,5s2.2,5,5,5c0.3,0,0.7,0,1-0.1c-1.3,1.3-3,2.1-5,2.1c-0.6,0-1,0.4-1,1s0.4,1,1,1c5,0,9-4,9-9
		C28,11.2,25.8,9,23,9z"/>
	<path d="M9,9c-2.8,0-5,2.2-5,5s2.2,5,5,5c0.3,0,0.7,0,1-0.1C8.7,20.2,7,21,5,21c-0.6,0-1,0.4-1,1s0.4,1,1,1c5,0,9-4,9-9
		C14,11.2,11.8,9,9,9z"/>
</g>
</svg>